<svg xmlns="http://www.w3.org/2000/svg" viewBox="0 0 960 720" width="960" height="720" font-family="Georgia, 'Times New Roman', serif">

  <!-- ═══════════════════════════════════════════════════════════ -->
  <!--  BACKGROUND                                                  -->
  <!-- ═══════════════════════════════════════════════════════════ -->
  <defs>
    <linearGradient id="bgGrad" x1="0" y1="0" x2="0" y2="1">
      <stop offset="0%"   stop-color="#0d1117"/>
      <stop offset="100%" stop-color="#161b22"/>
    </linearGradient>
    <linearGradient id="titleGrad" x1="0" y1="0" x2="1" y2="0">
      <stop offset="0%"   stop-color="#58a6ff"/>
      <stop offset="50%"  stop-color="#a78bfa"/>
      <stop offset="100%" stop-color="#f472b6"/>
    </linearGradient>
    <linearGradient id="arrowGrad" x1="0" y1="0" x2="1" y2="0">
      <stop offset="0%"   stop-color="#58a6ff"/>
      <stop offset="100%" stop-color="#34d399"/>
    </linearGradient>
    <!-- glow filter -->
    <filter id="glow" x="-30%" y="-30%" width="160%" height="160%">
      <feGaussianBlur stdDeviation="3" result="blur"/>
      <feMerge><feMergeNode in="blur"/><feMergeNode in="SourceGraphic"/></feMerge>
    </filter>
    <filter id="softglow" x="-20%" y="-20%" width="140%" height="140%">
      <feGaussianBlur stdDeviation="6" result="blur"/>
      <feMerge><feMergeNode in="blur"/><feMergeNode in="SourceGraphic"/></feMerge>
    </filter>
    <!-- clip paths for panels -->
    <clipPath id="clipLeft">   <rect x="28"  y="150" width="380" height="170"/></clipPath>
    <clipPath id="clipRight">  <rect x="552" y="150" width="380" height="170"/></clipPath>
    <clipPath id="clipBottom"> <rect x="28"  y="460" width="904" height="200"/></clipPath>
    <!-- marker -->
    <marker id="arrowhead" markerWidth="8" markerHeight="6" refX="8" refY="3" orient="auto">
      <polygon points="0 0, 8 3, 0 6" fill="#58a6ff"/>
    </marker>
    <marker id="arrowheadGreen" markerWidth="8" markerHeight="6" refX="8" refY="3" orient="auto">
      <polygon points="0 0, 8 3, 0 6" fill="#34d399"/>
    </marker>
    <marker id="arrowheadWhite" markerWidth="8" markerHeight="6" refX="8" refY="3" orient="auto">
      <polygon points="0 0, 8 3, 0 6" fill="#8b949e"/>
    </marker>
  </defs>

  <!-- Background -->
  <rect width="960" height="720" fill="url(#bgGrad)"/>

  <!-- Subtle grid lines -->
  <g stroke="#21262d" stroke-width="1" opacity="0.6">
    <line x1="0" y1="140" x2="960" y2="140"/>
    <line x1="0" y1="450" x2="960" y2="450"/>
    <line x1="0" y1="670" x2="960" y2="670"/>
    <line x1="480" y1="140" x2="480" y2="450"/>
  </g>

  <!-- ═══════════════════════════════════════════════════════════ -->
  <!--  TITLE SECTION                                               -->
  <!-- ═══════════════════════════════════════════════════════════ -->
  <text x="480" y="48" text-anchor="middle" font-size="34" font-weight="bold" fill="url(#titleGrad)" filter="url(#softglow)">The Fourier Transform</text>
  <text x="480" y="75" text-anchor="middle" font-size="14" fill="#8b949e" font-style="italic">Decomposing any signal into its constituent frequencies</text>

  <!-- Formula box -->
  <rect x="220" y="90" width="520" height="42" rx="8" fill="#161b22" stroke="#30363d" stroke-width="1.5"/>
  <text x="480" y="108" text-anchor="middle" font-size="11" fill="#58a6ff" font-family="monospace">TIME DOMAIN  →  FREQUENCY DOMAIN</text>
  <text x="480" y="126" text-anchor="middle" font-size="15" fill="#e6edf3" font-family="'Courier New', monospace">F(ω) = ∫₋∞^∞  f(t) · e^(−iωt) dt</text>

  <!-- ═══════════════════════════════════════════════════════════ -->
  <!--  LEFT PANEL — TIME DOMAIN (Composite Signal)                -->
  <!-- ═══════════════════════════════════════════════════════════ -->
  <!-- Panel background -->
  <rect x="28" y="148" width="382" height="174" rx="8" fill="#0d1117" stroke="#30363d" stroke-width="1.5"/>
  <rect x="28" y="148" width="382" height="26" rx="8" fill="#21262d"/>
  <rect x="28" y="160" width="382" height="14" fill="#21262d"/>
  <text x="219" y="166" text-anchor="middle" font-size="12" fill="#8b949e" font-weight="bold" letter-spacing="1">TIME DOMAIN  —  f(t)</text>

  <!-- Axis for left panel -->
  <!-- x-axis -->
  <line x1="48" y1="272" x2="398" y2="272" stroke="#30363d" stroke-width="1"/>
  <!-- y-axis -->
  <line x1="68" y1="182" x2="68" y2="315" stroke="#30363d" stroke-width="1"/>
  <!-- axis labels -->
  <text x="400" y="276" font-size="11" fill="#8b949e">t</text>
  <text x="62" y="180" font-size="11" fill="#8b949e">f(t)</text>
  <!-- tick marks x -->
  <g stroke="#30363d" stroke-width="1" fill="#6e7681" font-size="9" text-anchor="middle">
    <line x1="148" y1="268" x2="148" y2="276"/> <text x="148" y="284">T₁</text>
    <line x1="228" y1="268" x2="228" y2="276"/> <text x="228" y="284">T₂</text>
    <line x1="308" y1="268" x2="308" y2="276"/> <text x="308" y="284">T₃</text>
  </g>
  <!-- tick marks y -->
  <g stroke="#30363d" stroke-width="1" fill="#6e7681" font-size="9" text-anchor="end">
    <line x1="64" y1="230" x2="72" y2="230"/> <text x="62" y="233">+A</text>
    <line x1="64" y1="314" x2="72" y2="314"/> <text x="62" y="317">−A</text>
  </g>

  <!-- Composite signal: sum of 3 sine waves, clipped -->
  <!-- f(t) = sin(2π·1·t) + 0.5·sin(2π·3·t) + 0.3·sin(2π·5·t)  -->
  <!-- SVG path: x from 70 to 395, map t=[0,2π] to [70,395], y centered at 272, amp=38 -->
  <g clip-path="url(#clipLeft)">
    <!-- faint individual components first -->
    <!-- Component 1: f=1, amplitude=1 -->
    <path stroke="#3b82f6" stroke-width="1.2" fill="none" opacity="0.35"
      d="M70,272
         C75,245 82,218 90,218 C98,218 104,245 110,272
         C116,299 122,326 130,326 C138,326 144,299 150,272
         C156,245 162,218 170,218 C178,218 184,245 190,272
         C196,299 202,326 210,326 C218,326 224,299 230,272
         C236,245 242,218 250,218 C258,218 264,245 270,272
         C276,299 282,326 290,326 C298,326 304,299 310,272
         C316,245 322,218 330,218 C338,218 344,245 350,272
         C356,299 362,326 370,326 C378,326 384,299 390,272"/>

    <!-- Component 2: f=3 -->
    <path stroke="#f59e0b" stroke-width="1.2" fill="none" opacity="0.35"
      d="M70,272 C73,254 76,236 80,236 C84,236 87,254 90,272 C93,290 96,308 100,308 C104,308 107,290 110,272 C113,254 116,236 120,236 C124,236 127,254 130,272 C133,290 136,308 140,308 C144,308 147,290 150,272 C153,254 156,236 160,236 C164,236 167,254 170,272 C173,290 176,308 180,308 C184,308 187,290 190,272 C193,254 196,236 200,236 C204,236 207,254 210,272 C213,290 216,308 220,308 C224,308 227,290 230,272 C233,254 236,236 240,236 C244,236 247,254 250,272 C253,290 256,308 260,308 C264,308 267,290 270,272 C273,254 276,236 280,236 C284,236 287,254 290,272 C293,290 296,308 300,308 C304,308 307,290 310,272 C313,254 316,236 320,236 C324,236 327,254 330,272 C333,290 336,308 340,308 C344,308 347,290 350,272 C353,254 356,236 360,236 C364,236 367,254 370,272 C373,290 376,308 380,308 C384,308 387,290 390,272"/>

    <!-- Composite (bright) — hand-computed composite sine sum using JS-style path -->
    <path id="composite" stroke="#58a6ff" stroke-width="2.2" fill="none" filter="url(#glow)"
      d="
      M 70.0,272.0 L 71.6,263.3 L 73.3,254.9 L 74.9,247.2 L 76.5,240.5
      L 78.1,235.2 L 79.8,231.5 L 81.4,229.7 L 83.0,230.1 L 84.6,232.7
      L 86.2,237.3 L 87.9,243.8 L 89.5,251.7 L 91.1,260.4 L 92.7,269.4
      L 94.3,277.9 L 96.0,285.5 L 97.6,291.5 L 99.2,295.5 L 100.8,297.1
      L 102.4,296.1 L 104.1,292.3 L 105.7,286.0 L 107.3,277.6 L 108.9,267.6
      L 110.5,256.7 L 112.2,245.6 L 113.8,235.0 L 115.4,225.6 L 117.0,218.0
      L 118.6,212.7 L 120.3,210.1 L 121.9,210.2 L 123.5,213.0 L 125.1,218.3
      L 126.7,225.6 L 128.4,234.4 L 130.0,244.0 L 131.6,253.8 L 133.2,263.0
      L 134.8,271.1 L 136.5,277.5 L 138.1,281.8 L 139.7,283.7 L 141.3,282.9
      L 142.9,279.4 L 144.5,273.3 L 146.2,264.9 L 147.8,254.7 L 149.4,243.4
      L 151.0,231.5 L 152.6,220.0 L 154.3,209.5 L 155.9,200.7 L 157.5,194.1
      L 159.1,190.1 L 160.7,188.8 L 162.4,190.4 L 164.0,194.5 L 165.6,200.8
      L 167.2,208.8 L 168.8,218.0 L 170.4,227.7 L 172.1,237.3 L 173.7,246.2
      L 175.3,253.8 L 176.9,259.5 L 178.5,263.1 L 180.2,264.2 L 181.8,262.8
      L 183.4,258.8 L 185.0,252.4 L 186.6,244.0 L 188.2,234.1 L 189.9,223.2
      L 191.5,212.0 L 193.1,201.3 L 194.7,191.7 L 196.3,183.9 L 198.0,178.4
      L 199.6,175.6 L 201.2,175.6 L 202.8,178.3 L 204.4,183.7 L 206.0,191.2
      L 207.7,200.1 L 209.3,209.9 L 210.9,219.9 L 212.5,229.5 L 214.1,238.1
      L 215.8,245.3 L 217.4,250.6 L 219.0,253.7 L 220.6,254.5 L 222.2,252.8
      L 223.8,248.8 L 225.5,242.6 L 227.1,234.6 L 228.7,225.2 L 230.3,215.0
      L 231.9,204.5 L 233.6,194.2 L 235.2,184.8 L 236.8,177.0 L 238.4,171.2
      L 240.0,167.9 L 241.7,167.2 L 243.3,169.2 L 244.9,173.8 L 246.5,180.5
      L 248.1,188.9 L 249.7,198.4 L 251.4,208.4 L 253.0,218.3 L 254.6,227.5
      L 256.2,235.5 L 257.8,241.8 L 259.5,246.0 L 261.1,247.9 L 262.7,247.4
      L 264.3,244.4 L 265.9,239.2 L 267.5,231.9 L 269.2,223.1 L 270.8,213.3
      L 272.4,203.1 L 274.0,193.1 L 275.6,184.0 L 277.3,176.5 L 278.9,171.1
      L 280.5,168.0 L 282.1,167.4 L 283.7,169.4 L 285.3,173.8 L 286.9,180.4
      L 288.6,188.6 L 290.2,198.0 L 291.8,207.9 L 293.4,217.8 L 295.0,227.1
      L 296.7,235.2 L 298.3,241.7 L 299.9,246.3 L 301.5,248.5 L 303.1,248.3
      L 304.7,245.6 L 306.4,240.5 L 308.0,233.4 L 309.6,224.7 L 311.2,215.0
      L 312.8,204.8 L 314.5,194.9 L 316.1,185.7 L 317.7,178.0 L 319.3,172.3
      L 320.9,169.0 L 322.5,168.3 L 324.2,170.2 L 325.8,174.5 L 327.4,181.0
      L 329.0,189.0 L 330.6,198.2 L 332.3,207.9 L 333.9,217.5 L 335.5,226.5
      L 337.1,234.3 L 338.7,240.4 L 340.3,244.6 L 342.0,246.6 L 343.6,246.4
      L 345.2,243.9 L 346.8,239.3 L 348.4,232.9 L 350.1,225.0 L 351.7,216.2
      L 353.3,206.9 L 354.9,197.8 L 356.5,189.4 L 358.1,182.5 L 359.8,177.6
      L 361.4,175.0 L 363.0,175.0 L 364.6,177.5 L 366.2,182.4 L 367.9,189.2
      L 369.5,197.6 L 371.1,207.0 L 372.7,216.7 L 374.3,226.0 L 375.9,234.4
      L 377.6,241.3 L 379.2,246.3 L 380.8,249.1 L 382.4,249.5 L 384.0,247.4
      L 385.7,243.0 L 387.3,236.5 L 388.9,228.2 L 390.5,218.9 L 392.1,209.1
      L 393.7,199.1 L 395.4,189.6"/>
  </g>

  <!-- Panel label -->
  <text x="219" y="340" text-anchor="middle" font-size="11" fill="#8b949e" font-style="italic">
    Complex wave = sum of simple sinusoids
  </text>

  <!-- Legend for left panel -->
  <g transform="translate(72,350)">
    <line x1="0" y1="4" x2="18" y2="4" stroke="#3b82f6" stroke-width="1.5" opacity="0.6"/>
    <text x="22" y="8" font-size="9.5" fill="#6e7681">f₁ = 1 Hz</text>
    <line x1="80" y1="4" x2="98" y2="4" stroke="#f59e0b" stroke-width="1.5" opacity="0.6"/>
    <text x="102" y="8" font-size="9.5" fill="#6e7681">f₂ = 3 Hz</text>
    <line x1="165" y1="4" x2="183" y2="4" stroke="#58a6ff" stroke-width="2.2"/>
    <text x="187" y="8" font-size="9.5" fill="#6e7681">f(t) sum</text>
  </g>

  <!-- ═══════════════════════════════════════════════════════════ -->
  <!--  CENTER ARROW (Transform)                                   -->
  <!-- ═══════════════════════════════════════════════════════════ -->
  <g transform="translate(416, 230)">
    <!-- Arrow body -->
    <rect x="0" y="-1" width="108" height="2" rx="1" fill="url(#arrowGrad)"/>
    <polygon points="108,-6 122,0 108,6" fill="#34d399"/>
    <!-- FT label above -->
    <text x="54" y="-10" text-anchor="middle" font-size="11" fill="#34d399" font-weight="bold" letter-spacing="1">𝓕</text>
    <text x="54" y="18" text-anchor="middle" font-size="9" fill="#6e7681">Fourier</text>
    <text x="54" y="29" text-anchor="middle" font-size="9" fill="#6e7681">Transform</text>
  </g>

  <!-- ═══════════════════════════════════════════════════════════ -->
  <!--  RIGHT PANEL — FREQUENCY DOMAIN                            -->
  <!-- ═══════════════════════════════════════════════════════════ -->
  <rect x="552" y="148" width="382" height="174" rx="8" fill="#0d1117" stroke="#30363d" stroke-width="1.5"/>
  <rect x="552" y="148" width="382" height="26" rx="8" fill="#21262d"/>
  <rect x="552" y="160" width="382" height="14" fill="#21262d"/>
  <text x="743" y="166" text-anchor="middle" font-size="12" fill="#8b949e" font-weight="bold" letter-spacing="1">FREQUENCY DOMAIN  —  |F(ω)|</text>

  <!-- Frequency axis -->
  <line x1="572" y1="300" x2="922" y2="300" stroke="#30363d" stroke-width="1"/>
  <line x1="592" y1="185" x2="592" y2="310" stroke="#30363d" stroke-width="1"/>
  <text x="924" y="304" font-size="11" fill="#8b949e">ω</text>
  <text x="586" y="183" font-size="11" fill="#8b949e">|F|</text>

  <!-- Frequency axis ticks & labels -->
  <g fill="#6e7681" font-size="9.5" text-anchor="middle">
    <line x1="672" y1="296" x2="672" y2="304" stroke="#30363d"/>
    <text x="672" y="313">1 Hz</text>
    <line x1="752" y1="296" x2="752" y2="304" stroke="#30363d"/>
    <text x="752" y="313">3 Hz</text>
    <line x1="832" y1="296" x2="832" y2="304" stroke="#30363d"/>
    <text x="832" y="313">5 Hz</text>
  </g>

  <!-- Spectral lines (spikes) -->
  <g clip-path="url(#clipRight)">
    <!-- Spike at 1 Hz — amplitude 1.0 → height 90 -->
    <line x1="672" y1="300" x2="672" y2="210" stroke="#3b82f6" stroke-width="3" filter="url(#glow)"/>
    <circle cx="672" cy="210" r="5" fill="#3b82f6" filter="url(#glow)"/>
    <rect x="656" y="200" width="32" height="14" rx="3" fill="#1c2333" stroke="#3b82f6" stroke-width="0.8" opacity="0.9"/>
    <text x="672" y="211" text-anchor="middle" font-size="9" fill="#93c5fd">A=1.0</text>

    <!-- Spike at 3 Hz — amplitude 0.5 → height 45 -->
    <line x1="752" y1="300" x2="752" y2="255" stroke="#f59e0b" stroke-width="3" filter="url(#glow)"/>
    <circle cx="752" cy="255" r="5" fill="#f59e0b" filter="url(#glow)"/>
    <rect x="736" y="245" width="32" height="14" rx="3" fill="#1c2333" stroke="#f59e0b" stroke-width="0.8" opacity="0.9"/>
    <text x="752" y="256" text-anchor="middle" font-size="9" fill="#fcd34d">A=0.5</text>

    <!-- Spike at 5 Hz — amplitude 0.3 → height 27 -->
    <line x1="832" y1="300" x2="832" y2="273" stroke="#34d399" stroke-width="3" filter="url(#glow)"/>
    <circle cx="832" cy="273" r="5" fill="#34d399" filter="url(#glow)"/>
    <rect x="816" y="263" width="32" height="14" rx="3" fill="#1c2333" stroke="#34d399" stroke-width="0.8" opacity="0.9"/>
    <text x="832" y="274" text-anchor="middle" font-size="9" fill="#6ee7b7">A=0.3</text>

    <!-- Noise floor / baseline hint -->
    <path d="M592,300 Q632,299 650,300 Q660,300 672,300 Q690,300 710,300 Q730,300 752,300 Q780,300 800,300 Q816,300 832,300 Q860,299 900,300" stroke="#30363d" stroke-width="1" fill="none"/>
  </g>

  <text x="743" y="340" text-anchor="middle" font-size="11" fill="#8b949e" font-style="italic">
    Each spike = one frequency component
  </text>

  <!-- ═══════════════════════════════════════════════════════════ -->
  <!--  SECTION DIVIDER                                             -->
  <!-- ═══════════════════════════════════════════════════════════ -->
  <line x1="60" y1="375" x2="900" y2="375" stroke="#21262d" stroke-width="1" stroke-dasharray="4,4"/>

  <!-- ═══════════════════════════════════════════════════════════ -->
  <!--  MIDDLE ROW — DECOMPOSITION ILLUSTRATION                    -->
  <!-- ═══════════════════════════════════════════════════════════ -->
  <text x="480" y="400" text-anchor="middle" font-size="13" fill="#a78bfa" font-weight="bold" letter-spacing="1">HOW IT WORKS — SIGNAL DECOMPOSITION</text>
  <text x="480" y="416" text-anchor="middle" font-size="11" fill="#6e7681" font-style="italic">The Fourier Transform detects each hidden sinusoid by "matching" it with e^(−iωt)</text>

  <!-- Three component mini-panels -->
  <!-- Component 1 -->
  <rect x="40"  y="425" width="256" height="90" rx="6" fill="#0d1117" stroke="#3b82f6" stroke-width="1.2" opacity="0.8"/>
  <text x="168" y="440" text-anchor="middle" font-size="10" fill="#93c5fd" font-weight="bold">Component 1  —  1 Hz, A=1.0</text>
  <path stroke="#3b82f6" stroke-width="2" fill="none" filter="url(#glow)"
    d="M52,483 C65,450 85,435 104,468 C123,501 143,505 160,483 C177,461 197,435 216,468 C235,501 254,505 272,483 C278,475 282,468 286,460"/>
  <text x="168" y="508" text-anchor="middle" font-size="9" fill="#6e7681" font-style="italic">sin(2π · 1 · t)</text>

  <!-- Component 2 -->
  <rect x="352" y="425" width="256" height="90" rx="6" fill="#0d1117" stroke="#f59e0b" stroke-width="1.2" opacity="0.8"/>
  <text x="480" y="440" text-anchor="middle" font-size="10" fill="#fcd34d" font-weight="bold">Component 2  —  3 Hz, A=0.5</text>
  <path stroke="#f59e0b" stroke-width="2" fill="none" filter="url(#glow)"
    d="M364,483 C370,462 378,441 386,468 C394,495 402,505 410,483 C418,461 426,441 434,468 C442,495 450,505 458,483 C466,461 474,441 482,468 C490,495 498,505 506,483 C514,461 522,441 530,468 C538,495 546,505 554,483 C558,475 560,468 566,460 "/>
  <text x="480" y="508" text-anchor="middle" font-size="9" fill="#6e7681" font-style="italic">0.5 · sin(2π · 3 · t)</text>

  <!-- Component 3 -->
  <rect x="664" y="425" width="256" height="90" rx="6" fill="#0d1117" stroke="#34d399" stroke-width="1.2" opacity="0.8"/>
  <text x="792" y="440" text-anchor="middle" font-size="10" fill="#6ee7b7" font-weight="bold">Component 3  —  5 Hz, A=0.3</text>
  <path stroke="#34d399" stroke-width="2" fill="none" filter="url(#glow)"
    d="M676,483 C680,465 686,447 692,468 C698,489 704,505 710,483 C716,461 722,447 728,468 C734,489 740,505 746,483 C752,461 758,447 764,468 C770,489 776,505 782,483 C788,461 794,447 800,468 C806,489 812,505 818,483 C824,461 830,447 836,468 C842,489 848,505 854,468 C858,452 862,443 866,450 "/>
  <text x="792" y="508" text-anchor="middle" font-size="9" fill="#6e7681" font-style="italic">0.3 · sin(2π · 5 · t)</text>

  <!-- Plus signs between mini-panels -->
  <text x="316" y="477" text-anchor="middle" font-size="26" fill="#a78bfa" opacity="0.7">+</text>
  <text x="628" y="477" text-anchor="middle" font-size="26" fill="#a78bfa" opacity="0.7">+</text>

  <!-- ═══════════════════════════════════════════════════════════ -->
  <!--  BOTTOM ROW — KEY CONCEPTS                                  -->
  <!-- ═══════════════════════════════════════════════════════════ -->
  <line x1="60" y1="530" x2="900" y2="530" stroke="#21262d" stroke-width="1" stroke-dasharray="4,4"/>
  <text x="480" y="552" text-anchor="middle" font-size="13" fill="#a78bfa" font-weight="bold" letter-spacing="1">KEY CONCEPTS</text>

  <!-- Concept cards -->
  <!-- Card 1 -->
  <rect x="40"  y="560" width="200" height="115" rx="7" fill="#161b22" stroke="#30363d" stroke-width="1.2"/>
  <rect x="40"  y="560" width="200" height="28" rx="7" fill="#1f2937"/>
  <rect x="40"  y="574" width="200" height="14" fill="#1f2937"/>
  <text x="140" y="578" text-anchor="middle" font-size="11" fill="#58a6ff" font-weight="bold">⚡  Superposition</text>
  <text x="140" y="598" text-anchor="middle" font-size="10" fill="#8b949e">Any periodic signal can be</text>
  <text x="140" y="612" text-anchor="middle" font-size="10" fill="#8b949e">expressed as a (possibly</text>
  <text x="140" y="626" text-anchor="middle" font-size="10" fill="#8b949e">infinite) sum of sines</text>
  <text x="140" y="640" text-anchor="middle" font-size="10" fill="#8b949e">and cosines.</text>
  <text x="140" y="666" text-anchor="middle" font-size="9" fill="#6e7681" font-style="italic">f(t) = Σ aₙcos(nωt) + bₙsin(nωt)</text>

  <!-- Card 2 -->
  <rect x="260" y="560" width="200" height="115" rx="7" fill="#161b22" stroke="#30363d" stroke-width="1.2"/>
  <rect x="260" y="560" width="200" height="28" rx="7" fill="#1f2937"/>
  <rect x="260" y="574" width="200" height="14" fill="#1f2937"/>
  <text x="360" y="578" text-anchor="middle" font-size="11" fill="#f59e0b" font-weight="bold">🔄  Complex Exponential</text>
  <text x="360" y="598" text-anchor="middle" font-size="10" fill="#8b949e">Euler's formula links</text>
  <text x="360" y="612" text-anchor="middle" font-size="10" fill="#8b949e">sinusoids to complex</text>
  <text x="360" y="626" text-anchor="middle" font-size="10" fill="#8b949e">exponentials, enabling</text>
  <text x="360" y="640" text-anchor="middle" font-size="10" fill="#8b949e">compact computation.</text>
  <text x="360" y="666" text-anchor="middle" font-size="9" fill="#6e7681" font-style="italic">e^(iθ) = cos(θ) + i·sin(θ)</text>

  <!-- Card 3 -->
  <rect x="480" y="560" width="200" height="115" rx="7" fill="#161b22" stroke="#30363d" stroke-width="1.2"/>
  <rect x="480" y="560" width="200" height="28" rx="7" fill="#1f2937"/>
  <rect x="480" y="574" width="200" height="14" fill="#1f2937"/>
  <text x="580" y="578" text-anchor="middle" font-size="11" fill="#34d399" font-weight="bold">📐  Orthogonality</text>
  <text x="580" y="598" text-anchor="middle" font-size="10" fill="#8b949e">Different frequency</text>
  <text x="580" y="612" text-anchor="middle" font-size="10" fill="#8b949e">sinusoids are orthogonal;</text>
  <text x="580" y="626" text-anchor="middle" font-size="10" fill="#8b949e">the transform isolates</text>
  <text x="580" y="640" text-anchor="middle" font-size="10" fill="#8b949e">each one cleanly.</text>
  <text x="580" y="666" text-anchor="middle" font-size="9" fill="#6e7681" font-style="italic">∫ sin(mωt)·sin(nωt) dt = 0</text>

  <!-- Card 4 -->
  <rect x="700" y="560" width="220" height="115" rx="7" fill="#161b22" stroke="#30363d" stroke-width="1.2"/>
  <rect x="700" y="560" width="220" height="28" rx="7" fill="#1f2937"/>
  <rect x="700" y="574" width="220" height="14" fill="#1f2937"/>
  <text x="810" y="578" text-anchor="middle" font-size="11" fill="#a78bfa" font-weight="bold">🛠  Applications</text>
  <text x="810" y="598" text-anchor="middle" font-size="10" fill="#8b949e">Audio compression (MP3)</text>
  <text x="810" y="612" text-anchor="middle" font-size="10" fill="#8b949e">Image processing (JPEG)</text>
  <text x="810" y="626" text-anchor="middle" font-size="10" fill="#8b949e">Noise filtering &amp; EQ</text>
  <text x="810" y="640" text-anchor="middle" font-size="10" fill="#8b949e">Radar &amp; MRI imaging</text>
  <text x="810" y="654" text-anchor="middle" font-size="10" fill="#8b949e">Quantum mechanics</text>

  <!-- ═══════════════════════════════════════════════════════════ -->
  <!--  FOOTER                                                      -->
  <!-- ═══════════════════════════════════════════════════════════ -->
  <line x1="60" y1="687" x2="900" y2="687" stroke="#21262d" stroke-width="1"/>
  <text x="480" y="706" text-anchor="middle" font-size="10" fill="#484f58">
    Fourier Transform: F(ω) = ∫ f(t)·e^(−iωt) dt  |  Inverse: f(t) = (1/2π) ∫ F(ω)·e^(iωt) dω
  </text>

</svg>
